<svg id="Layer_1" data-name="Layer 1" xmlns="http://www.w3.org/2000/svg" viewBox="0 0 350 250"><polygon points="86.64 87.5 43.34 162.5 129.94 162.5 86.64 87.5"/><path d="M139.14,162.5V87.62h36.91a50.56,50.56,0,0,1,22,4.55A35.21,35.21,0,0,1,213,105.06q5.36,8.34,5.35,19.89T213,145A35.11,35.11,0,0,1,198.08,158a50.42,50.42,0,0,1-22,4.55Z"/><path d="M227.5,162.5V87.62h36.9a50.6,50.6,0,0,1,22,4.55,35.21,35.21,0,0,1,14.87,12.89q5.34,8.34,5.35,19.89T301.31,145A35.11,35.11,0,0,1,286.44,158a50.46,50.46,0,0,1-22,4.55Z"/></svg>